National Park -Regular.ufo
<glyph name="exclam" format="2">
	<advance width="220"/>
	<unicode hex="0021"/>
	<outline>
		<contour>
			<point x="145" y="212" type="curve" smooth="yes"/>
			<point x="152" y="675" type="line" smooth="yes"/>
			<point x="152" y="697"/>
			<point x="134" y="715"/>
			<point x="110" y="715" type="curve" smooth="yes"/>
			<point x="86" y="715"/>
			<point x="68" y="697"/>
			<point x="68" y="675" type="curve" smooth="yes"/>
			<point x="73" y="212" type="line" smooth="yes"/>
			<point x="73" y="190"/>
			<point x="91" y="175"/>
			<point x="109" y="175" type="curve" smooth="yes"/>
			<point x="127" y="175"/>
			<point x="145" y="190"/>
		</contour>
		<contour>
			<point x="110" y="-10" type="curve" smooth="yes"/>
			<point x="77" y="-10"/>
			<point x="55" y="12"/>
			<point x="55" y="53" type="curve" smooth="yes"/>
			<point x="55" y="93"/>
			<point x="77" y="115"/>
			<point x="110" y="115" type="curve" smooth="yes"/>
			<point x="143" y="115"/>
			<point x="165" y="93"/>
			<point x="165" y="53" type="curve" smooth="yes"/>
			<point x="165" y="12"/>
			<point x="143" y="-10"/>
		</contour>
	</outline>
</glyph>
<glyph name="one" format="2">
	<advance width="620"/>
	<unicode hex="0031"/>
	<outline>
		<contour>
			<point x="285" y="35" type="line"/>
			<point x="365" y="35" type="line"/>
			<point x="365" y="659" type="line" smooth="yes"/>
			<point x="365" y="687"/>
			<point x="346" y="706"/>
			<point x="316" y="706" type="curve" smooth="yes"/>
			<point x="297" y="706"/>
			<point x="284" y="697"/>
			<point x="271" y="687" type="curve" smooth="yes"/>
			<point x="82" y="548" type="line" smooth="yes"/>
			<point x="75" y="543"/>
			<point x="71" y="532"/>
			<point x="71" y="522" type="curve" smooth="yes"/>
			<point x="71" y="500"/>
			<point x="90" y="482"/>
			<point x="111" y="482" type="curve" smooth="yes"/>
			<point x="124" y="482"/>
			<point x="132" y="489"/>
			<point x="142" y="496" type="curve" smooth="yes"/>
			<point x="298" y="596" type="line"/>
			<point x="285" y="602" type="line"/>
		</contour>
		<contour>
			<point x="515" y="80" type="curve" smooth="yes"/>
			<point x="120" y="80" type="line" smooth="yes"/>
			<point x="98" y="80"/>
			<point x="80" y="62"/>
			<point x="80" y="40" type="curve" smooth="yes"/>
			<point x="80" y="18"/>
			<point x="98" y="0"/>
			<point x="120" y="0" type="curve" smooth="yes" name="❌"/>
			<point x="515" y="0" type="line" smooth="yes" name="❌"/>
			<point x="537" y="0"/>
			<point x="555" y="18"/>
			<point x="555" y="40" type="curve" smooth="yes"/>
			<point x="555" y="62"/>
			<point x="537" y="80"/>
		</contour>
	</outline>
</glyph>
<glyph name="U" format="2">
	<advance width="650"/>
	<unicode hex="0055"/>
	<anchor x="325" y="0" name="bottom"/>
	<anchor x="411" y="0" name="ogonek"/>
	<anchor x="325" y="700" name="top"/>
	<anchor x="630" y="700" name="topright"/>
	<outline>
		<contour>
			<point x="325" y="-14" type="curve" smooth="yes"/>
			<point x="471" y="-14"/>
			<point x="575" y="93"/>
			<point x="575" y="236" type="curve" smooth="yes"/>
			<point x="575" y="664" type="line" smooth="yes"/>
			<point x="575" y="687"/>
			<point x="557" y="705"/>
			<point x="534" y="705" type="curve" smooth="yes"/>
			<point x="511" y="705"/>
			<point x="493" y="687"/>
			<point x="493" y="664" type="curve" smooth="yes"/>
			<point x="493" y="236" type="line" smooth="yes"/>
			<point x="493" y="137"/>
			<point x="423" y="63"/>
			<point x="325" y="63" type="curve" smooth="yes"/>
			<point x="227" y="63"/>
			<point x="157" y="137"/>
			<point x="157" y="236" type="curve" smooth="yes"/>
			<point x="157" y="664" type="line" smooth="yes"/>
			<point x="157" y="687"/>
			<point x="139" y="705"/>
			<point x="116" y="705" type="curve" smooth="yes"/>
			<point x="93" y="705"/>
			<point x="75" y="687"/>
			<point x="75" y="664" type="curve" smooth="yes"/>
			<point x="75" y="236" type="line" smooth="yes"/>
			<point x="75" y="93"/>
			<point x="179" y="-14"/>
		</contour>
	</outline>
</glyph>
<glyph name="e" format="2">
	<advance width="528"/>
	<unicode hex="0065"/>
	<anchor x="270" y="0" name="bottom"/>
	<anchor x="361" y="50" name="ogonek"/>
	<anchor x="270" y="515" name="top"/>
	<outline>
		<contour>
			<point x="271" y="-15" type="curve" smooth="yes"/>
			<point x="383" y="-15"/>
			<point x="466" y="65"/>
			<point x="466" y="120" type="curve" smooth="yes"/>
			<point x="466" y="143"/>
			<point x="451" y="155"/>
			<point x="433" y="155" type="curve" smooth="yes"/>
			<point x="410" y="155"/>
			<point x="397" y="134"/>
			<point x="390" y="123" type="curve" smooth="yes"/>
			<point x="366" y="84"/>
			<point x="335" y="62"/>
			<point x="275" y="62" type="curve" smooth="yes"/>
			<point x="192" y="62"/>
			<point x="120" y="115"/>
			<point x="120" y="260" type="curve" smooth="yes"/>
			<point x="120" y="386"/>
			<point x="180" y="453"/>
			<point x="267" y="453" type="curve" smooth="yes"/>
			<point x="362" y="453"/>
			<point x="413" y="373"/>
			<point x="414" y="282" type="curve"/>
			<point x="443" y="307" type="line"/>
			<point x="104" y="307" type="line"/>
			<point x="104" y="234" type="line"/>
			<point x="431" y="234" type="line" smooth="yes"/>
			<point x="469" y="234"/>
			<point x="488" y="255"/>
			<point x="488" y="293" type="curve" smooth="yes"/>
			<point x="488" y="422"/>
			<point x="400" y="530"/>
			<point x="270" y="530" type="curve" smooth="yes"/>
			<point x="139" y="530"/>
			<point x="40" y="420"/>
			<point x="40" y="255" type="curve" smooth="yes"/>
			<point x="40" y="76"/>
			<point x="151" y="-15"/>
		</contour>
	</outline>
</glyph>
<glyph name="m" format="2">
	<advance width="878"/>
	<unicode hex="006D"/>
	<anchor x="439" y="0" name="bottom"/>
	<anchor x="439" y="515" name="top"/>
	<outline>
		<contour>
			<point x="110" y="-10" type="curve" smooth="yes"/>
			<point x="132" y="-10"/>
			<point x="150" y="8"/>
			<point x="150" y="30" type="curve" smooth="yes"/>
			<point x="150" y="485" type="line" smooth="yes"/>
			<point x="150" y="507"/>
			<point x="132" y="525"/>
			<point x="110" y="525" type="curve" smooth="yes"/>
			<point x="88" y="525"/>
			<point x="70" y="507"/>
			<point x="70" y="485" type="curve" smooth="yes"/>
			<point x="70" y="30" type="line" smooth="yes"/>
			<point x="70" y="8"/>
			<point x="88" y="-10"/>
		</contour>
		<contour>
			<point x="439" y="-10" type="curve" smooth="yes"/>
			<point x="461" y="-10"/>
			<point x="479" y="8"/>
			<point x="479" y="30" type="curve" smooth="yes"/>
			<point x="480" y="353" type="line" smooth="yes"/>
			<point x="480" y="455"/>
			<point x="403" y="530"/>
			<point x="302" y="530" type="curve" smooth="yes"/>
			<point x="238" y="530"/>
			<point x="176" y="503"/>
			<point x="139" y="449" type="curve"/>
			<point x="139" y="353" type="line"/>
			<point x="150" y="353" type="line"/>
			<point x="150" y="404"/>
			<point x="217" y="454"/>
			<point x="290" y="454" type="curve" smooth="yes"/>
			<point x="352" y="454"/>
			<point x="399" y="413"/>
			<point x="399" y="340" type="curve" smooth="yes"/>
			<point x="399" y="30" type="line" smooth="yes"/>
			<point x="399" y="8"/>
			<point x="417" y="-10"/>
		</contour>
		<contour>
			<point x="777" y="-10" type="curve" smooth="yes"/>
			<point x="799" y="-10"/>
			<point x="817" y="8"/>
			<point x="817" y="30" type="curve" smooth="yes"/>
			<point x="818" y="334" type="line" smooth="yes"/>
			<point x="818" y="455"/>
			<point x="741" y="530"/>
			<point x="630" y="530" type="curve" smooth="yes"/>
			<point x="548" y="530"/>
			<point x="480" y="493"/>
			<point x="446" y="430" type="curve"/>
			<point x="467" y="353" type="line"/>
			<point x="480" y="353" type="line"/>
			<point x="480" y="404"/>
			<point x="545" y="454"/>
			<point x="618" y="454" type="curve" smooth="yes"/>
			<point x="690" y="454"/>
			<point x="737" y="413"/>
			<point x="737" y="340" type="curve" smooth="yes"/>
			<point x="737" y="30" type="line" smooth="yes"/>
			<point x="737" y="8"/>
			<point x="755" y="-10"/>
		</contour>
	</outline>
</glyph>
<glyph name="r" format="2">
	<advance width="357"/>
	<unicode hex="0072"/>
	<anchor x="184" y="0" name="bottom"/>
	<anchor x="204" y="515" name="top"/>
	<outline>
		<contour>
			<point x="110" y="-10" type="curve" smooth="yes"/>
			<point x="132" y="-10"/>
			<point x="150" y="8"/>
			<point x="150" y="30" type="curve" smooth="yes"/>
			<point x="150" y="485" type="line" smooth="yes"/>
			<point x="150" y="507"/>
			<point x="132" y="525"/>
			<point x="110" y="525" type="curve" smooth="yes"/>
			<point x="87" y="525"/>
			<point x="70" y="507"/>
			<point x="70" y="485" type="curve" smooth="yes"/>
			<point x="70" y="30" type="line" smooth="yes"/>
			<point x="70" y="8"/>
			<point x="87" y="-10"/>
		</contour>
		<contour>
			<point x="141" y="333" type="line"/>
			<point x="150" y="334" type="line"/>
			<point x="150" y="390"/>
			<point x="215" y="445"/>
			<point x="297" y="445" type="curve" smooth="yes"/>
			<point x="319" y="445"/>
			<point x="337" y="463"/>
			<point x="337" y="485" type="curve" smooth="yes"/>
			<point x="337" y="507"/>
			<point x="319" y="525"/>
			<point x="289" y="525" type="curve" smooth="yes"/>
			<point x="221" y="525"/>
			<point x="176" y="494"/>
			<point x="150" y="457" type="curve"/>
			<point x="141" y="457" type="line"/>
		</contour>
	</outline>
</glyph>
<glyph name="brokenbar" format="2">
	<advance width="156"/>
	<unicode hex="00A6"/>
	<outline>
		<contour>
			<point x="117" y="-147" type="curve" smooth="yes"/>
			<point x="117" y="259" type="line" smooth="yes"/>
			<point x="117" y="281"/>
			<point x="100" y="298"/>
			<point x="78" y="298" type="curve" smooth="yes"/>
			<point x="56" y="298"/>
			<point x="39" y="281"/>
			<point x="39" y="259" type="curve" smooth="yes"/>
			<point x="39" y="-147" type="line" smooth="yes"/>
			<point x="39" y="-169"/>
			<point x="56" y="-186"/>
			<point x="78" y="-186" type="curve" smooth="yes"/>
			<point x="100" y="-186"/>
			<point x="117" y="-169"/>
		</contour>
		<contour>
			<point x="117" y="408" type="curve" smooth="yes"/>
			<point x="117" y="796" type="line" smooth="yes"/>
			<point x="117" y="818"/>
			<point x="100" y="835"/>
			<point x="78" y="835" type="curve" smooth="yes"/>
			<point x="56" y="835"/>
			<point x="39" y="818"/>
			<point x="39" y="796" type="curve" smooth="yes"/>
			<point x="39" y="408" type="line" smooth="yes"/>
			<point x="39" y="386"/>
			<point x="56" y="369"/>
			<point x="78" y="369" type="curve" smooth="yes"/>
			<point x="100" y="369"/>
			<point x="117" y="386"/>
		</contour>
	</outline>
</glyph>
<glyph name="registered" format="2">
	<advance width="801"/>
	<unicode hex="00AE"/>
	<outline>
		<contour>
			<point x="324" y="161" type="curve" smooth="yes"/>
			<point x="324" y="305" type="line"/>
			<point x="432" y="305" type="line" smooth="yes"/>
			<point x="509" y="305"/>
			<point x="569" y="358"/>
			<point x="569" y="434" type="curve" smooth="yes"/>
			<point x="569" y="511"/>
			<point x="509" y="565"/>
			<point x="427" y="565" type="curve" smooth="yes"/>
			<point x="285" y="565" type="line" smooth="yes"/>
			<point x="269" y="565"/>
			<point x="256" y="553"/>
			<point x="256" y="537" type="curve" smooth="yes"/>
			<point x="256" y="161" type="line" smooth="yes"/>
			<point x="256" y="145"/>
			<point x="269" y="130"/>
			<point x="290" y="130" type="curve" smooth="yes"/>
			<point x="311" y="130"/>
			<point x="324" y="145"/>
		</contour>
		<contour>
			<point x="435" y="365" type="curve" smooth="yes"/>
			<point x="321" y="365" type="line"/>
			<point x="321" y="505" type="line"/>
			<point x="430" y="505" type="line" smooth="yes"/>
			<point x="474" y="505"/>
			<point x="504" y="476"/>
			<point x="504" y="434" type="curve" smooth="yes"/>
			<point x="504" y="393"/>
			<point x="477" y="365"/>
		</contour>
		<contour>
			<point x="501" y="151" type="line"/>
			<point x="508" y="137"/>
			<point x="517" y="131"/>
			<point x="528" y="131" type="curve" smooth="yes"/>
			<point x="547" y="131"/>
			<point x="564" y="143"/>
			<point x="564" y="160" type="curve" smooth="yes"/>
			<point x="564" y="165"/>
			<point x="563" y="170"/>
			<point x="560" y="176" type="curve" smooth="yes"/>
			<point x="470" y="347" type="line"/>
			<point x="410" y="322" type="line"/>
		</contour>
		<contour>
			<point x="404" y="0" type="curve" smooth="yes"/>
			<point x="589" y="0"/>
			<point x="741" y="160"/>
			<point x="741" y="355" type="curve" smooth="yes"/>
			<point x="741" y="550"/>
			<point x="589" y="703"/>
			<point x="404" y="703" type="curve" smooth="yes"/>
			<point x="216" y="703"/>
			<point x="60" y="548"/>
			<point x="60" y="353" type="curve" smooth="yes"/>
			<point x="60" y="158"/>
			<point x="216" y="0"/>
		</contour>
		<contour>
			<point x="404" y="60" type="curve" smooth="yes"/>
			<point x="244" y="60"/>
			<point x="123" y="188"/>
			<point x="123" y="353" type="curve" smooth="yes"/>
			<point x="123" y="518"/>
			<point x="244" y="643"/>
			<point x="404" y="643" type="curve" smooth="yes"/>
			<point x="561" y="643"/>
			<point x="682" y="518"/>
			<point x="682" y="353" type="curve" smooth="yes"/>
			<point x="682" y="188"/>
			<point x="561" y="60"/>
		</contour>
	</outline>
</glyph>
<glyph name="degree" format="2">
	<advance width="323"/>
	<unicode hex="00B0"/>
	<outline>
		<contour>
			<point x="161" y="451" type="curve" smooth="yes"/>
			<point x="234" y="451"/>
			<point x="293" y="511"/>
			<point x="293" y="583" type="curve" smooth="yes"/>
			<point x="293" y="656"/>
			<point x="234" y="715"/>
			<point x="161" y="715" type="curve" smooth="yes"/>
			<point x="89" y="715"/>
			<point x="30" y="656"/>
			<point x="30" y="583" type="curve" smooth="yes"/>
			<point x="30" y="511"/>
			<point x="89" y="451"/>
		</contour>
		<contour>
			<point x="161" y="511" type="curve" smooth="yes"/>
			<point x="122" y="511"/>
			<point x="93" y="544"/>
			<point x="93" y="583" type="curve" smooth="yes"/>
			<point x="93" y="624"/>
			<point x="122" y="655"/>
			<point x="161" y="655" type="curve" smooth="yes"/>
			<point x="202" y="655"/>
			<point x="230" y="624"/>
			<point x="230" y="583" type="curve" smooth="yes"/>
			<point x="230" y="544"/>
			<point x="202" y="511"/>
		</contour>
	</outline>
</glyph>
<glyph name="ordmasculine" format="2">
	<advance width="380"/>
	<unicode hex="00BA"/>
	<anchor x="329" y="0" name="bottom"/>
	<anchor x="329" y="258" name="center"/>
	<anchor x="365" y="10" name="ogonek"/>
	<anchor x="329" y="515" name="top"/>
	<anchor x="582" y="515" name="topright"/>
	<outline>
		<contour>
			<point x="290" y="508" type="curve" smooth="yes"/>
			<point x="290" y="426"/>
			<point x="255" y="378"/>
			<point x="190" y="378" type="curve" smooth="yes"/>
			<point x="124" y="378"/>
			<point x="90" y="426"/>
			<point x="90" y="508" type="curve" smooth="yes"/>
			<point x="90" y="588"/>
			<point x="124" y="637"/>
			<point x="190" y="637" type="curve" smooth="yes"/>
			<point x="255" y="637"/>
			<point x="290" y="588"/>
		</contour>
		<contour>
			<point x="355" y="508" type="curve" smooth="yes"/>
			<point x="355" y="616"/>
			<point x="291" y="700"/>
			<point x="190" y="700" type="curve" smooth="yes"/>
			<point x="88" y="700"/>
			<point x="25" y="616"/>
			<point x="25" y="508" type="curve" smooth="yes"/>
			<point x="25" y="398"/>
			<point x="88" y="315"/>
			<point x="190" y="315" type="curve" smooth="yes"/>
			<point x="291" y="315"/>
			<point x="355" y="398"/>
		</contour>
	</outline>
</glyph>
<glyph name="hbar" format="2">
	<advance width="545"/>
	<unicode hex="0127"/>
	<outline>
		<component base="h"/>
		<contour>
			<point x="-29" y="598" type="move"/>
			<point x="329" y="598" type="line"/>
		</contour>
	</outline>
</glyph>
<glyph name="lslash" format="2">
	<advance width="361"/>
	<unicode hex="0142"/>
	<outline>
		<contour>
			<point x="216" y="30" type="curve" smooth="yes"/>
			<point x="216" y="690" type="line" smooth="yes"/>
			<point x="216" y="712"/>
			<point x="198" y="730"/>
			<point x="176" y="730" type="curve" smooth="yes"/>
			<point x="153" y="730"/>
			<point x="136" y="712"/>
			<point x="136" y="690" type="curve" smooth="yes"/>
			<point x="136" y="30" type="line" smooth="yes"/>
			<point x="136" y="8"/>
			<point x="153" y="-10"/>
			<point x="176" y="-10" type="curve" smooth="yes"/>
			<point x="198" y="-10"/>
			<point x="216" y="8"/>
		</contour>
		<contour>
			<point x="47" y="289" type="move"/>
			<point x="314" y="426" type="line"/>
		</contour>
	</outline>
</glyph>
<glyph name="uhorn" format="2">
	<advance width="528"/>
	<unicode hex="01B0"/>
	<anchor x="274" y="0" name="bottom"/>
	<anchor x="274" y="515" name="top"/>
	<outline>
		<contour>
			<point x="397" y="485" type="curve" smooth="yes"/>
			<point x="397" y="52" type="line"/>
			<point x="397" y="30" type="line" smooth="yes"/>
			<point x="397" y="8"/>
			<point x="415" y="-10"/>
			<point x="437" y="-10" type="curve" smooth="yes"/>
			<point x="459" y="-10"/>
			<point x="477" y="8"/>
			<point x="477" y="30" type="curve" smooth="yes"/>
			<point x="477" y="485" type="line" smooth="yes"/>
			<point x="477" y="507"/>
			<point x="459" y="525"/>
			<point x="437" y="525" type="curve" smooth="yes"/>
			<point x="415" y="525"/>
			<point x="397" y="507"/>
		</contour>
		<contour>
			<point x="408" y="66" type="curve"/>
			<point x="408" y="172" type="line"/>
			<point x="397" y="162" type="line"/>
			<point x="397" y="112"/>
			<point x="332" y="64"/>
			<point x="259" y="64" type="curve" smooth="yes"/>
			<point x="184" y="64"/>
			<point x="140" y="98"/>
			<point x="140" y="191" type="curve" smooth="yes"/>
			<point x="140" y="485" type="line" smooth="yes"/>
			<point x="140" y="507"/>
			<point x="122" y="525"/>
			<point x="100" y="525" type="curve" smooth="yes"/>
			<point x="78" y="525"/>
			<point x="60" y="507"/>
			<point x="60" y="485" type="curve" smooth="yes"/>
			<point x="60" y="191" type="line" smooth="yes"/>
			<point x="60" y="39"/>
			<point x="158" y="-15"/>
			<point x="252" y="-15" type="curve" smooth="yes"/>
			<point x="326" y="-15"/>
			<point x="380" y="26"/>
		</contour>
		<contour>
			<point x="506" y="618" type="curve" smooth="yes"/>
			<point x="506" y="577"/>
			<point x="478" y="525"/>
			<point x="437" y="525" type="curve"/>
			<point x="437" y="467" type="line"/>
			<point x="530" y="467"/>
			<point x="578" y="560"/>
			<point x="578" y="613" type="curve" smooth="yes"/>
			<point x="578" y="640"/>
			<point x="564" y="656"/>
			<point x="541" y="656" type="curve" smooth="yes"/>
			<point x="520" y="656"/>
			<point x="506" y="642"/>
		</contour>
	</outline>
</glyph>
<glyph name="minute" format="2">
	<advance width="162"/>
	<unicode hex="2032"/>
	<outline>
		<contour>
			<point x="118" y="485" type="curve" smooth="yes"/>
			<point x="122" y="674" type="line" smooth="yes"/>
			<point x="123" y="698"/>
			<point x="103" y="715"/>
			<point x="81" y="715" type="curve" smooth="yes"/>
			<point x="59" y="715"/>
			<point x="39" y="698"/>
			<point x="40" y="674" type="curve" smooth="yes"/>
			<point x="44" y="485" type="line" smooth="yes"/>
			<point x="44" y="467"/>
			<point x="61" y="452"/>
			<point x="81" y="452" type="curve" smooth="yes"/>
			<point x="101" y="452"/>
			<point x="118" y="467"/>
		</contour>
	</outline>
</glyph>
<glyph name="commercialMinusSign" format="2">
	<advance width="457"/>
	<unicode hex="2052"/>
	<outline>
		<component base="bullet" xScale="0.8516" yScale="0.8516" xOffset="6" yOffset="332"/>
		<component base="bullet" xScale="0.8522" yScale="0.8522" xOffset="235" yOffset="-217"/>
		<contour>
			<point x="123" y="21" type="curve" smooth="yes"/>
			<point x="409" y="639" type="line" smooth="yes"/>
			<point x="421" y="666"/>
			<point x="407" y="699"/>
			<point x="375" y="699" type="curve" smooth="yes"/>
			<point x="359" y="699"/>
			<point x="346" y="690"/>
			<point x="340" y="676" type="curve" smooth="yes"/>
			<point x="54" y="57" type="line" smooth="yes"/>
			<point x="42" y="31"/>
			<point x="56" y="-2"/>
			<point x="88" y="-2" type="curve" smooth="yes"/>
			<point x="104" y="-2"/>
			<point x="117" y="7"/>
		</contour>
	</outline>
</glyph>
<glyph name="cedi" format="2">
	<advance width="616"/>
	<unicode hex="20B5"/>
	<outline>
		<component base="C" xScale="0.9589" yScale="0.9589" xOffset="13" yOffset="14"/>
		<contour>
			<point x="318" y="796" type="move"/>
			<point x="318" y="-95" type="line"/>
		</contour>
	</outline>
</glyph>
<glyph name="a.ss01" format="2">
	<advance width="576"/>
	<anchor x="268" y="-16" name="bottom"/>
	<anchor x="478" y="10" name="ogonek"/>
	<anchor x="283" y="515" name="top"/>
	<outline>
		<contour>
			<point x="500" y="102" type="curve" smooth="yes"/>
			<point x="500" y="480" type="line" smooth="yes"/>
			<point x="500" y="502"/>
			<point x="482" y="520"/>
			<point x="460" y="520" type="curve" smooth="yes"/>
			<point x="438" y="520"/>
			<point x="420" y="502"/>
			<point x="420" y="480" type="curve" smooth="yes"/>
			<point x="420" y="417" type="line"/>
			<point x="433" y="435" type="line"/>
			<point x="398" y="487"/>
			<point x="350" y="530"/>
			<point x="267" y="530" type="curve" smooth="yes"/>
			<point x="122" y="530"/>
			<point x="40" y="397"/>
			<point x="40" y="247" type="curve" smooth="yes"/>
			<point x="40" y="101"/>
			<point x="114" y="-15"/>
			<point x="261" y="-15" type="curve" smooth="yes"/>
			<point x="334" y="-15"/>
			<point x="399" y="13"/>
			<point x="442" y="91" type="curve"/>
			<point x="427" y="103" type="line"/>
			<point x="427" y="49" type="line" smooth="yes"/>
			<point x="427" y="19"/>
			<point x="453" y="-8"/>
			<point x="491" y="-8" type="curve" smooth="yes"/>
			<point x="522" y="-8"/>
			<point x="541" y="9"/>
			<point x="541" y="32" type="curve" smooth="yes"/>
			<point x="541" y="53"/>
			<point x="526" y="72"/>
			<point x="507" y="72" type="curve" smooth="yes"/>
			<point x="500" y="72"/>
			<point x="500" y="83"/>
		</contour>
		<contour>
			<point x="273" y="62" type="curve" smooth="yes"/>
			<point x="177" y="62"/>
			<point x="120" y="124"/>
			<point x="120" y="247" type="curve" smooth="yes"/>
			<point x="120" y="372"/>
			<point x="174" y="454"/>
			<point x="272" y="453" type="curve" smooth="yes"/>
			<point x="361" y="452"/>
			<point x="420" y="377"/>
			<point x="420" y="251" type="curve" smooth="yes"/>
			<point x="420" y="91"/>
			<point x="336" y="62"/>
		</contour>
	</outline>
</glyph>
<glyph name="brevecomb_hookabovecomb" format="2">
	<advance width="0"/>
	<anchor x="191" y="515" name="_top"/>
	<anchor x="185" y="882" name="top"/>
	<outline>
		<component base="brevecomb.loclVIT" xOffset="-10"/>
		<contour>
			<point x="218" y="713" type="curve" smooth="yes"/>
			<point x="254" y="743"/>
			<point x="275" y="764"/>
			<point x="275" y="802" type="curve" smooth="yes"/>
			<point x="275" y="850"/>
			<point x="237" y="892"/>
			<point x="186" y="892" type="curve" smooth="yes"/>
			<point x="135" y="892"/>
			<point x="91" y="861"/>
			<point x="91" y="828" type="curve" smooth="yes"/>
			<point x="91" y="808"/>
			<point x="106" y="793"/>
			<point x="126" y="793" type="curve" smooth="yes"/>
			<point x="139" y="793"/>
			<point x="150" y="800"/>
			<point x="156" y="811" type="curve" smooth="yes"/>
			<point x="163" y="823"/>
			<point x="172" y="828"/>
			<point x="183" y="828" type="curve" smooth="yes"/>
			<point x="200" y="828"/>
			<point x="207" y="816"/>
			<point x="207" y="804" type="curve" smooth="yes"/>
			<point x="207" y="794"/>
			<point x="201" y="787"/>
			<point x="177" y="763" type="curve" smooth="yes"/>
			<point x="170" y="756"/>
			<point x="163" y="747"/>
			<point x="163" y="735" type="curve" smooth="yes"/>
			<point x="163" y="716"/>
			<point x="176" y="706"/>
			<point x="195" y="706" type="curve" smooth="yes"/>
			<point x="203" y="706"/>
			<point x="212" y="708"/>
		</contour>
	</outline>
</glyph>
<glyph name="caroncomb.alt" format="2">
	<advance width="0"/>
	<anchor x="0" y="700" name="_top"/>
	<outline>
		<contour>
			<point x="112" y="523" type="curve" smooth="yes"/>
			<point x="140" y="646" type="line" smooth="yes"/>
			<point x="147" y="676"/>
			<point x="142" y="710"/>
			<point x="102" y="710" type="curve" smooth="yes"/>
			<point x="78" y="710"/>
			<point x="65" y="697"/>
			<point x="59" y="658" type="curve" smooth="yes"/>
			<point x="40" y="532" type="line" smooth="yes"/>
			<point x="36" y="509"/>
			<point x="51" y="486"/>
			<point x="74" y="486" type="curve" smooth="yes"/>
			<point x="92" y="486"/>
			<point x="107" y="500"/>
		</contour>
	</outline>
</glyph>
<glyph name="f_f_i" format="2">
	<advance width="832"/>
	<anchor x="719" y="0" name="bottom"/>
	<anchor x="286" y="0" name="caret_1"/>
	<anchor x="572" y="0" name="caret_2"/>
	<outline>
		<component base="f_f"/>
		<contour>
			<point x="719" y="-10" type="curve" smooth="yes"/>
			<point x="741" y="-10"/>
			<point x="759" y="8"/>
			<point x="759" y="30" type="curve" smooth="yes"/>
			<point x="759" y="485" type="line" smooth="yes"/>
			<point x="759" y="507"/>
			<point x="741" y="525"/>
			<point x="719" y="525" type="curve" smooth="yes"/>
			<point x="696" y="525"/>
			<point x="679" y="507"/>
			<point x="679" y="485" type="curve" smooth="yes"/>
			<point x="679" y="30" type="line" smooth="yes"/>
			<point x="679" y="8"/>
			<point x="696" y="-10"/>
		</contour>
		<component base="dotaccentcomb" xScale="0.8668" yScale="0.8668" xOffset="641" yOffset="86"/>
	</outline>
</glyph>
<glyph name="macroncomb.narrow" format="2">
	<advance width="0"/>
	<anchor x="159" y="515" name="_top"/>
	<anchor x="159" y="674" name="top"/>
	<outline>
		<contour>
			<point x="239" y="635" type="move"/>
			<point x="79" y="635" type="line"/>
		</contour>
	</outline>
</glyph>
<glyph name="nine.dnom" format="2">
	<advance width="350"/>
	<outline>
		<contour>
			<point x="310" y="189" type="curve" smooth="yes"/>
			<point x="310" y="332"/>
			<point x="250" y="386"/>
			<point x="172" y="386" type="curve" smooth="yes"/>
			<point x="88" y="386"/>
			<point x="40" y="321"/>
			<point x="40" y="251" type="curve" smooth="yes"/>
			<point x="40" y="167"/>
			<point x="98" y="120"/>
			<point x="168" y="120" type="curve" smooth="yes"/>
			<point x="225" y="120"/>
			<point x="266" y="158"/>
			<point x="281" y="194" type="curve"/>
			<point x="242" y="238" type="line"/>
			<point x="250" y="86"/>
			<point x="212" y="61"/>
			<point x="173" y="61" type="curve" smooth="yes"/>
			<point x="140" y="61"/>
			<point x="123" y="72"/>
			<point x="114" y="96" type="curve" smooth="yes"/>
			<point x="109" y="109"/>
			<point x="96" y="118"/>
			<point x="83" y="118" type="curve" smooth="yes"/>
			<point x="65" y="118"/>
			<point x="50" y="103"/>
			<point x="50" y="85" type="curve" smooth="yes"/>
			<point x="50" y="82"/>
			<point x="50" y="77"/>
			<point x="52" y="74" type="curve"/>
			<point x="70" y="24"/>
			<point x="118" y="-5"/>
			<point x="173" y="-5" type="curve" smooth="yes"/>
			<point x="228" y="-5"/>
			<point x="310" y="32"/>
		</contour>
		<contour>
			<point x="234" y="249" type="curve" smooth="yes"/>
			<point x="234" y="204"/>
			<point x="203" y="186"/>
			<point x="168" y="186" type="curve" smooth="yes"/>
			<point x="126" y="186"/>
			<point x="106" y="203"/>
			<point x="106" y="251" type="curve" smooth="yes"/>
			<point x="106" y="294"/>
			<point x="124" y="320"/>
			<point x="172" y="320" type="curve" smooth="yes"/>
			<point x="213" y="320"/>
			<point x="234" y="296"/>
		</contour>
	</outline>
</glyph>
<glyph name="numbersign.001" format="2">
	<advance width="620"/>
	<outline>
		<contour>
			<point x="184" y="23" type="curve"/>
			<point x="316" y="663" type="line"/>
			<point x="321" y="687"/>
			<point x="302" y="710"/>
			<point x="278" y="710" type="curve"/>
			<point x="259" y="710"/>
			<point x="243" y="697"/>
			<point x="240" y="679" type="curve"/>
			<point x="108" y="39" type="line"/>
			<point x="103" y="15"/>
			<point x="122" y="-8"/>
			<point x="146" y="-8" type="curve"/>
			<point x="165" y="-8"/>
			<point x="181" y="5"/>
		</contour>
		<contour>
			<point x="386" y="23" type="curve"/>
			<point x="518" y="663" type="line"/>
			<point x="523" y="687"/>
			<point x="504" y="710"/>
			<point x="480" y="710" type="curve"/>
			<point x="461" y="710"/>
			<point x="445" y="697"/>
			<point x="442" y="679" type="curve"/>
			<point x="310" y="39" type="line"/>
			<point x="305" y="15"/>
			<point x="324" y="-8"/>
			<point x="348" y="-8" type="curve"/>
			<point x="367" y="-8"/>
			<point x="383" y="5"/>
		</contour>
		<contour>
			<point x="551" y="504" type="curve"/>
			<point x="116" y="504" type="line"/>
			<point x="94" y="504"/>
			<point x="77" y="487"/>
			<point x="77" y="465" type="curve"/>
			<point x="77" y="443"/>
			<point x="94" y="426"/>
			<point x="116" y="426" type="curve"/>
			<point x="551" y="426" type="line"/>
			<point x="573" y="426"/>
			<point x="590" y="443"/>
			<point x="590" y="465" type="curve"/>
			<point x="590" y="487"/>
			<point x="573" y="504"/>
		</contour>
		<contour>
			<point x="504" y="281" type="curve"/>
			<point x="69" y="281" type="line"/>
			<point x="47" y="281"/>
			<point x="30" y="264"/>
			<point x="30" y="242" type="curve"/>
			<point x="30" y="220"/>
			<point x="47" y="203"/>
			<point x="69" y="203" type="curve"/>
			<point x="504" y="203" type="line"/>
			<point x="526" y="203"/>
			<point x="543" y="220"/>
			<point x="543" y="242" type="curve"/>
			<point x="543" y="264"/>
			<point x="526" y="281"/>
		</contour>
	</outline>
</glyph>
